# xmcd
#
# Track frame offsets: 
#        150
#        13335
#        29270
#        42522
#        56197
#        74341
#        87549
#        102184
#        114134
#        128251
#
# Disc length: 1953 seconds
#
# Revision: 1
# Processed by: cddbd v1.5.2PL0 Copyright (c) Steve Scherf et al.
# Submitted via: ExactAudioCopy v0.95b3
#
DISCID=82079f0a
DTITLE=Toby Keith - Drinks After Work
DYEAR=2013
DGENRE=Country
TTITLE0=Shut Up And Hold On
TTITLE1=Drinks After Work
TTITLE2=Before We Knew They Were Good
TTITLE3=Little Miss Tear Stain
TTITLE4=The Other Side of Him
TTITLE5=Last Living Cowboy
TTITLE6=Show Me What You're Workin' With
TTITLE7=Whole Lot More Than That
TTITLE8=I'll Probably Be Out Fishin'
TTITLE9=Hard Way to Make an Easy Living
EXTD=
EXTT0=
EXTT1=
EXTT2=
EXTT3=
EXTT4=
EXTT5=
EXTT6=
EXTT7=
EXTT8=
EXTT9=
PLAYORDER=
